<?xml version="1.0" standalone="no"?><svg xmlns="http://www.w3.org/2000/svg" viewBox="0 0 1440 320"><path fill="#09212a" fill-opacity="1" d="M0,224L24,213.3C48,203,96,181,144,186.7C192,192,240,224,288,234.7C336,245,384,235,432,213.3C480,192,528,160,576,138.7C624,117,672,107,720,133.3C768,160,816,224,864,234.7C912,245,960,203,1008,192C1056,181,1104,203,1152,218.7C1200,235,1248,245,1296,224C1344,203,1392,149,1416,122.7L1440,96L1440,320L1416,320C1392,320,1344,320,1296,320C1248,320,1200,320,1152,320C1104,320,1056,320,1008,320C960,320,912,320,864,320C816,320,768,320,720,320C672,320,624,320,576,320C528,320,480,320,432,320C384,320,336,320,288,320C240,320,192,320,144,320C96,320,48,320,24,320L0,320Z"></path></svg>